# xmcd CD database file
#
# Track frame offsets:
#	150
#	31888
#	66192
#	92688
#	116937
#	145119
#	184894
#	210178
#	244936
#	263379
#	282104
#	305394
#
# Disc length: 4359 seconds
#
# Revision: 0
# Processed by: cddbd v1.4PL0 Copyright (c) Steve Scherf et al.
# Submitted via: CDex 1.50
#
DISCID=a311050c
DTITLE=Marcelo Torres - Constructor de Almas
DYEAR=2003
DGENRE=Jazz
TTITLE0=Identidad
TTITLE1=Monedas Para Viajar
TTITLE2=Constructor de Almas
TTITLE3=Pequeño Pez
TTITLE4=Nuestro Barrio
TTITLE5=Sao Paulo
TTITLE6=Mayo frio
TTITLE7=Vagamundo
TTITLE8=Preparando el Viaje
TTITLE9=Cancion Para Los Sin Nombre
TTITLE10=Monsieur Please
TTITLE11=Gabrielito
EXTD=YEAR: 2003
EXTT0=
EXTT1=
EXTT2=
EXTT3=
EXTT4=
EXTT5=
EXTT6=
EXTT7=
EXTT8=
EXTT9=
EXTT10=
EXTT11=
PLAYORDER=
